<svg width="30" height="30" viewBox="0 0 30 30" fill="none" xmlns="http://www.w3.org/2000/svg">
<path d="M1 9C1 4.58172 4.58172 1 9 1H21C25.4183 1 29 4.58172 29 9V21C29 25.4183 25.4183 29 21 29H9C4.58172 29 1 25.4183 1 21V9Z" fill="#00CC00"/>
<rect x="1" y="1" width="28" height="28" rx="8" stroke="#00CC00" stroke-width="2"/>
<path d="M23.4136 8.58561C23.7891 8.96069 24 9.46933 24 9.99969C24 10.5301 23.7891 11.0387 23.4136 11.4138L13.3997 21.4144C13.0241 21.7894 12.5148 22 11.9837 22C11.4527 22 10.9433 21.7894 10.5678 21.4144L6.5622 17.4141C6.19738 17.0369 5.99551 16.5317 6.00008 16.0073C6.00464 15.4828 6.21527 14.9812 6.5866 14.6103C6.95793 14.2395 7.46026 14.0291 7.98538 14.0246C8.5105 14.02 9.01641 14.2216 9.39414 14.586L11.9837 17.1721L20.5817 8.58561C20.9573 8.21064 21.4666 8 21.9976 8C22.5287 8 23.038 8.21064 23.4136 8.58561Z" fill="white"/>
</svg>
